<?xml version="1.0" encoding="UTF-8" standalone="no"?>
<!-- Created with Inkscape (http://www.inkscape.org/) -->

<svg
   version="1.1"
   id="svg2331"
   xml:space="preserve"
   width="682.66669"
   height="682.66669"
   viewBox="0 0 682.66669 682.66669"
   xmlns="http://www.w3.org/2000/svg"
   xmlns:svg="http://www.w3.org/2000/svg"><defs
     id="defs2335"><clipPath
       clipPathUnits="userSpaceOnUse"
       id="clipPath2349"><path
         d="M 0,512 H 512 V 0 H 0 Z"
         id="path2347" /></clipPath></defs><g
     id="g2337"
     transform="matrix(1.3333333,0,0,-1.3333333,0,682.66667)"><g
       id="g2339"
       transform="translate(149.418,142.6807)"><path
         d="M 0,0 H -90.289"
         style="fill:none;stroke:#000000;stroke-width:15;stroke-linecap:round;stroke-linejoin:round;stroke-miterlimit:10;stroke-dasharray:none;stroke-opacity:1"
         id="path2341" /></g><g
       id="g2343"><g
         id="g2345"
         clip-path="url(#clipPath2349)"><g
           id="g2351"
           transform="translate(64.792,380.5859)"><path
             d="m 0,0 v 32.281 c 0,4.266 3.458,7.724 7.724,7.724 h 32.281 c 4.266,0 7.724,-3.458 7.724,-7.724 V 0 c 0,-4.266 -3.458,-7.724 -7.724,-7.724 H 7.724 C 3.458,-7.724 0,-4.266 0,0 Z"
             style="fill:none;stroke:#000000;stroke-width:15;stroke-linecap:round;stroke-linejoin:round;stroke-miterlimit:10;stroke-dasharray:none;stroke-opacity:1"
             id="path2353" /></g><g
           id="g2355"
           transform="translate(145.0508,380.5859)"><path
             d="m 0,0 v 32.281 c 0,4.266 3.458,7.724 7.724,7.724 h 32.281 c 4.266,0 7.724,-3.458 7.724,-7.724 V 0 c 0,-4.266 -3.458,-7.724 -7.724,-7.724 H 7.724 C 3.458,-7.724 0,-4.266 0,0 Z"
             style="fill:none;stroke:#000000;stroke-width:15;stroke-linecap:round;stroke-linejoin:round;stroke-miterlimit:10;stroke-dasharray:none;stroke-opacity:1"
             id="path2357" /></g><g
           id="g2359"
           transform="translate(225.3086,380.5859)"><path
             d="m 0,0 v 32.281 c 0,4.266 3.458,7.724 7.724,7.724 h 32.281 c 4.266,0 7.724,-3.458 7.724,-7.724 V 0 c 0,-4.266 -3.458,-7.724 -7.724,-7.724 H 7.724 C 3.458,-7.724 0,-4.266 0,0 Z"
             style="fill:none;stroke:#000000;stroke-width:15;stroke-linecap:round;stroke-linejoin:round;stroke-miterlimit:10;stroke-dasharray:none;stroke-opacity:1"
             id="path2361" /></g><g
           id="g2363"
           transform="translate(64.792,297.6377)"><path
             d="m 0,0 v 32.282 c 0,4.265 3.458,7.723 7.724,7.723 h 32.281 c 4.266,0 7.724,-3.458 7.724,-7.723 V 0 c 0,-4.266 -3.458,-7.723 -7.724,-7.723 H 7.724 C 3.458,-7.723 0,-4.266 0,0 Z"
             style="fill:none;stroke:#000000;stroke-width:15;stroke-linecap:round;stroke-linejoin:round;stroke-miterlimit:10;stroke-dasharray:none;stroke-opacity:1"
             id="path2365" /></g><g
           id="g2367"
           transform="translate(145.0508,297.6377)"><path
             d="m 0,0 v 32.282 c 0,4.265 3.458,7.723 7.724,7.723 h 32.281 c 4.266,0 7.724,-3.458 7.724,-7.723 V 0 c 0,-4.266 -3.458,-7.723 -7.724,-7.723 H 7.724 C 3.458,-7.723 0,-4.266 0,0 Z"
             style="fill:none;stroke:#000000;stroke-width:15;stroke-linecap:round;stroke-linejoin:round;stroke-miterlimit:10;stroke-dasharray:none;stroke-opacity:1"
             id="path2369" /></g><g
           id="g2371"
           transform="translate(64.792,214.6899)"><path
             d="m 0,0 v 32.281 c 0,4.266 3.458,7.724 7.724,7.724 h 32.281 c 4.266,0 7.724,-3.458 7.724,-7.724 V 0 c 0,-4.266 -3.458,-7.724 -7.724,-7.724 H 7.724 C 3.458,-7.724 0,-4.266 0,0 Z"
             style="fill:none;stroke:#000000;stroke-width:15;stroke-linecap:round;stroke-linejoin:round;stroke-miterlimit:10;stroke-dasharray:none;stroke-opacity:1"
             id="path2373" /></g><g
           id="g2375"
           transform="translate(145.0508,214.6899)"><path
             d="m 0,0 v 32.281 c 0,4.266 3.458,7.724 7.724,7.724 h 32.281 c 4.266,0 7.724,-3.458 7.724,-7.724 V 0 c 0,-4.266 -3.458,-7.724 -7.724,-7.724 H 7.724 C 3.458,-7.724 0,-4.266 0,0 Z"
             style="fill:none;stroke:#000000;stroke-width:15;stroke-linecap:round;stroke-linejoin:round;stroke-miterlimit:10;stroke-dasharray:none;stroke-opacity:1"
             id="path2377" /></g><g
           id="g2379"
           transform="translate(268.6934,253.9077)"><path
             d="m 0,0 c -1.021,0.499 -2.165,0.787 -3.38,0.787 h -32.281 c -4.266,0 -7.724,-3.458 -7.724,-7.724 v -32.281 c 0,-4.265 3.458,-7.723 7.724,-7.723 H -3.38 c 4.266,0 7.724,3.458 7.724,7.723 v 24.9"
             style="fill:none;stroke:#000000;stroke-width:15;stroke-linecap:round;stroke-linejoin:round;stroke-miterlimit:10;stroke-dasharray:none;stroke-opacity:1"
             id="path2381" /></g><g
           id="g2383"
           transform="translate(234.1172,63.9609)"><path
             d="M 0,0 V -23.792"
             style="fill:none;stroke:#000000;stroke-width:15;stroke-linecap:round;stroke-linejoin:round;stroke-miterlimit:10;stroke-dasharray:none;stroke-opacity:1"
             id="path2385" /></g><g
           id="g2387"
           transform="translate(422.5293,63.9609)"><path
             d="M 0,0 V -23.792"
             style="fill:none;stroke:#000000;stroke-width:15;stroke-linecap:round;stroke-linejoin:round;stroke-miterlimit:10;stroke-dasharray:none;stroke-opacity:1"
             id="path2389" /></g><g
           id="g2391"
           transform="translate(312.417,409.9663)"><path
             d="m 0,0 v 30.41 c 0,10.397 -8.429,18.826 -18.826,18.826 h -249.353 c -10.396,0 -18.825,-8.429 -18.825,-18.826 v -400.207"
             style="fill:none;stroke:#000000;stroke-width:15;stroke-linecap:round;stroke-linejoin:round;stroke-miterlimit:10;stroke-dasharray:none;stroke-opacity:1"
             id="path2393" /></g><g
           id="g2395"
           transform="translate(488.1133,7.479)"><path
             d="m 0,0 h -464.269 c -9.027,0 -16.344,7.318 -16.344,16.345 0,9.027 7.317,16.345 16.344,16.345 H 0 c 9.027,0 16.345,-7.318 16.345,-16.345 C 16.345,7.318 9.027,0 0,0 Z"
             style="fill:none;stroke:#000000;stroke-width:15;stroke-linecap:round;stroke-linejoin:round;stroke-miterlimit:10;stroke-dasharray:none;stroke-opacity:1"
             id="path2397" /></g><g
           id="g2399"
           transform="translate(469.4834,40.1689)"><path
             d="m 0,0 v 70.871 c 0,22.089 -14.559,41.536 -35.753,47.758 l -47.427,13.924"
             style="fill:none;stroke:#000000;stroke-width:15;stroke-linecap:round;stroke-linejoin:round;stroke-miterlimit:10;stroke-dasharray:none;stroke-opacity:1"
             id="path2401" /></g><g
           id="g2403"
           transform="translate(187.1875,70.8857)"><path
             d="M 0,0 V -30.717"
             style="fill:none;stroke:#000000;stroke-width:15;stroke-linecap:round;stroke-linejoin:round;stroke-miterlimit:10;stroke-dasharray:none;stroke-opacity:1"
             id="path2405" /></g><g
           id="g2407"
           transform="translate(270.6475,172.7974)"><path
             d="M 0,0 -47.703,-14.001 C -68.9,-20.222 -83.46,-39.67 -83.46,-61.761 v -5.091"
             style="fill:none;stroke:#000000;stroke-width:15;stroke-linecap:round;stroke-linejoin:round;stroke-miterlimit:10;stroke-dasharray:none;stroke-opacity:1"
             id="path2409" /></g><g
           id="g2411"
           transform="translate(271.4697,162.0742)"><path
             d="m 0,0 25.616,-25.656 c 3.249,-3.163 8.364,-3.358 11.844,-0.451 l 11.663,9.742 8.424,7.037 -33.171,24.787 -1.075,0.804 c -3.343,2.498 -7.779,2.987 -11.586,1.278 L 2.465,13.388 C 1.085,12.768 -0.014,11.833 -0.822,10.723 -3.107,7.587 -3.021,3.025 0,0 Z"
             style="fill:none;stroke:#000000;stroke-width:15;stroke-linecap:round;stroke-linejoin:round;stroke-miterlimit:10;stroke-dasharray:none;stroke-opacity:1"
             id="path2413" /></g><g
           id="g2415"
           transform="translate(329.0166,152.7466)"><path
             d="m 0,0 8.02,-6.856 10.86,-9.287 c 3.459,-2.957 8.597,-2.808 11.879,0.345 L 56.389,9.16 c 3.1,3.02 3.213,7.648 0.898,10.815 -0.811,1.111 -1.916,2.046 -3.303,2.664 l -9.428,4.201 c -3.868,1.723 -8.368,1.181 -11.714,-1.41 l -1.058,-0.819 z"
             style="fill:none;stroke:#000000;stroke-width:15;stroke-linecap:round;stroke-linejoin:round;stroke-miterlimit:10;stroke-dasharray:none;stroke-opacity:1"
             id="path2417" /></g><g
           id="g2419"
           transform="translate(360.8008,177.3574)"><path
             d="M 0,0 V 35.758"
             style="fill:none;stroke:#000000;stroke-width:15;stroke-linecap:round;stroke-linejoin:round;stroke-miterlimit:10;stroke-dasharray:none;stroke-opacity:1"
             id="path2421" /></g><g
           id="g2423"
           transform="translate(295.8457,213.1157)"><path
             d="M 0,0 V -35.583"
             style="fill:none;stroke:#000000;stroke-width:15;stroke-linecap:round;stroke-linejoin:round;stroke-miterlimit:10;stroke-dasharray:none;stroke-opacity:1"
             id="path2425" /></g><g
           id="g2427"
           transform="translate(383.2969,350.3721)"><path
             d="m 0,0 h -0.604 c -3.352,0 -6.07,2.717 -6.07,6.069 0,9.923 -8.044,17.968 -17.968,17.968 h -61.92 c -22.839,0 -41.354,-18.515 -41.354,-41.354 v -39.889 h 12.416 c 6.905,0 12.503,5.598 12.503,12.503 v 6.846 c 0,8.994 8.799,15.354 17.339,12.532 l 0.023,-0.008 c 19.919,-6.58 41.426,-6.578 61.344,0.005 8.541,2.823 17.341,-3.537 17.341,-12.532 v -6.843 c 0,-6.905 5.597,-12.503 12.503,-12.503 h 12.416 v 39.238 C 17.969,-8.044 9.924,0 0,0 Z"
             style="fill:none;stroke:#000000;stroke-width:15;stroke-linecap:round;stroke-linejoin:round;stroke-miterlimit:10;stroke-dasharray:none;stroke-opacity:1"
             id="path2429" /></g><g
           id="g2431"
           transform="translate(255.3809,293.1665)"><path
             d="m 0,0 v -6.025 -14.421 c 0,-5.224 4.235,-9.459 9.46,-9.459 1.648,0 2.989,-1.292 3.093,-2.937 1.995,-31.625 28.26,-56.661 60.389,-56.661 32.129,0 58.395,25.036 60.39,56.661 0.104,1.645 1.445,2.937 3.093,2.937 5.224,0 9.46,4.235 9.46,9.459 V -6.025 0"
             style="fill:none;stroke:#000000;stroke-width:15;stroke-linecap:round;stroke-linejoin:round;stroke-miterlimit:10;stroke-dasharray:none;stroke-opacity:1"
             id="path2433" /></g><g
           id="g2435"
           transform="translate(309.2373,136.2275)"><path
             d="M 0,0 10.078,-17.309 H 28.117 L 38.195,0.751"
             style="fill:none;stroke:#000000;stroke-width:15;stroke-linecap:round;stroke-linejoin:round;stroke-miterlimit:10;stroke-dasharray:none;stroke-opacity:1"
             id="path2437" /></g><g
           id="g2439"
           transform="translate(319.3154,118.9185)"><path
             d="M 0,0 -13.958,-78.75"
             style="fill:none;stroke:#000000;stroke-width:15;stroke-linecap:round;stroke-linejoin:round;stroke-miterlimit:10;stroke-dasharray:none;stroke-opacity:1"
             id="path2441" /></g><g
           id="g2443"
           transform="translate(351.3203,40.1689)"><path
             d="M 0,0 -13.966,78.75"
             style="fill:none;stroke:#000000;stroke-width:15;stroke-linecap:round;stroke-linejoin:round;stroke-miterlimit:10;stroke-dasharray:none;stroke-opacity:1"
             id="path2445" /></g><g
           id="g2447"
           transform="translate(289.4551,459.2021)"><path
             d="m 0,0 v 34.327 c 0,6.048 -4.902,10.95 -10.95,10.95 h -219.18 c -6.048,0 -10.95,-4.902 -10.95,-10.95 V 0"
             style="fill:none;stroke:#000000;stroke-width:15;stroke-linecap:round;stroke-linejoin:round;stroke-miterlimit:10;stroke-dasharray:none;stroke-opacity:1"
             id="path2449" /></g><g
           id="g2451"
           transform="translate(255.6396,337.6426)"><path
             d="m 0,0 h -22.607 c -4.266,0 -7.724,-3.458 -7.724,-7.723 v -32.282 c 0,-4.266 3.458,-7.723 7.724,-7.723 h 22.348"
             style="fill:none;stroke:#000000;stroke-width:15;stroke-linecap:round;stroke-linejoin:round;stroke-miterlimit:10;stroke-dasharray:none;stroke-opacity:1"
             id="path2453" /></g><g
           id="g2455"
           transform="translate(67.5703,142.6807)"><path
             d="M 0,0 V -102.512"
             style="fill:none;stroke:#000000;stroke-width:15;stroke-linecap:round;stroke-linejoin:round;stroke-miterlimit:10;stroke-dasharray:none;stroke-opacity:1"
             id="path2457" /></g><g
           id="g2459"
           transform="translate(140.9756,40.1689)"><path
             d="M 0,0 V 102.512"
             style="fill:none;stroke:#000000;stroke-width:15;stroke-linecap:round;stroke-linejoin:round;stroke-miterlimit:10;stroke-dasharray:none;stroke-opacity:1"
             id="path2461" /></g></g></g></g></svg>
