<?xml version="1.0" encoding="UTF-8"?>
<svg xmlns="http://www.w3.org/2000/svg" id="Line_Expand" data-name="Line Expand" viewBox="0 0 64 64" width="512" height="512"><path d="M57,27a5.991,5.991,0,0,0-4.728,9.682Q50.649,37.563,49,38.3V8a5.006,5.006,0,0,0-5-5H20a5.006,5.006,0,0,0-5,5V38.3q-1.65-.735-3.272-1.619A6,6,0,1,0,3.5,37.864V60a1,1,0,0,0,1,1h5a1,1,0,0,0,1-1V38.291A49.113,49.113,0,0,0,15,40.5V56a1,1,0,0,0,1,1H48a1,1,0,0,0,1-1V40.5a49.113,49.113,0,0,0,4.5-2.211V60a1,1,0,0,0,1,1h5a1,1,0,0,0,1-1V37.864A5.994,5.994,0,0,0,57,27ZM8.5,59h-3V38.8a5.809,5.809,0,0,0,3,0ZM7,37a4,4,0,1,1,4-4A4,4,0,0,1,7,37ZM19,55H17V41.274c.664.245,1.331.469,2,.681Zm24,0H21V42.548a42.393,42.393,0,0,0,22,0Zm0-14.514a40.717,40.717,0,0,1-22,0V9H43ZM47,55H45V41.955c.669-.212,1.336-.436,2-.681Zm0-15.869c-.664.258-1.33.505-2,.728V8a1,1,0,0,0-1-1H20a1,1,0,0,0-1,1V39.859c-.67-.223-1.336-.47-2-.728V8a3,3,0,0,1,3-3H44a3,3,0,0,1,3,3ZM58.5,59h-3V38.8a5.809,5.809,0,0,0,3,0ZM57,37a4,4,0,1,1,4-4A4,4,0,0,1,57,37Z"/><path d="M38,36a3,3,0,0,0,3-3V27a3,3,0,0,0-6,0v6A3,3,0,0,0,38,36Zm-1-9a1,1,0,0,1,2,0v6a1,1,0,0,1-2,0Z"/></svg>
