<?xml version="1.0" encoding="UTF-8" standalone="no"?>
<!-- Created with Inkscape (http://www.inkscape.org/) -->

<svg
   version="1.1"
   id="svg768"
   xml:space="preserve"
   width="682.66669"
   height="682.66669"
   viewBox="0 0 682.66669 682.66669"
   xmlns="http://www.w3.org/2000/svg"
   xmlns:svg="http://www.w3.org/2000/svg"><defs
     id="defs772"><clipPath
       clipPathUnits="userSpaceOnUse"
       id="clipPath782"><path
         d="M 0,512 H 512 V 0 H 0 Z"
         id="path780" /></clipPath></defs><g
     id="g774"
     transform="matrix(1.3333333,0,0,-1.3333333,0,682.66667)"><g
       id="g776"><g
         id="g778"
         clip-path="url(#clipPath782)"><g
           id="g784"
           transform="translate(108.6177,379.8716)"><path
             d="m 0,0 v 37.088 h -34.397 c -3.454,0 -6.254,-2.799 -6.254,-6.254 l 0,-30.834 z"
             style="fill:none;stroke:#fff;stroke-width:15;stroke-linecap:round;stroke-linejoin:round;stroke-miterlimit:10;stroke-dasharray:none;stroke-opacity:1"
             id="path786" /></g><g
           id="g788"
           transform="translate(183.5073,117.3199)"><path
             d="M 0,0 V -13.561 C 0,-20.226 5.4,-25.68 12.001,-25.68 h 120.984 c 6.6,0 12.001,5.454 12.001,12.119 V 0 Z"
             style="fill:none;stroke:#fff;stroke-width:15;stroke-linecap:round;stroke-linejoin:round;stroke-miterlimit:10;stroke-dasharray:none;stroke-opacity:1"
             id="path790" /></g><g
           id="g792"
           transform="translate(498.6816,117.3199)"><path
             d="m 0,0 h -485.363 c -3.214,0 -5.82,-2.631 -5.82,-5.876 V -26.09 c 0,-14.997 12.153,-27.268 27.006,-27.268 h 442.991 c 14.853,0 27.005,12.271 27.005,27.268 V -5.876 C 5.819,-2.631 3.214,0 0,0 Z"
             style="fill:none;stroke:#fff;stroke-width:15;stroke-linecap:round;stroke-linejoin:round;stroke-miterlimit:10;stroke-dasharray:none;stroke-opacity:1"
             id="path794" /></g><path
           d="M 444.034,379.872 H 256.001 V 264.111 h 188.033 z"
           style="fill:none;stroke:#fff;stroke-width:15;stroke-linecap:round;stroke-linejoin:round;stroke-miterlimit:10;stroke-dasharray:none;stroke-opacity:1"
           id="path796" /><path
           d="M 256,379.872 H 67.966 V 264.111 H 256 Z"
           style="fill:none;stroke:#fff;stroke-width:15;stroke-linecap:round;stroke-linejoin:round;stroke-miterlimit:10;stroke-dasharray:none;stroke-opacity:1"
           id="path798" /><g
           id="g800"
           transform="translate(256.0005,264.1109)"><path
             d="m 0,0 v -115.761 h 181.78 c 3.453,0 6.253,2.801 6.253,6.254 l 0,109.507 z"
             style="fill:none;stroke:#fff;stroke-width:15;stroke-linecap:round;stroke-linejoin:round;stroke-miterlimit:10;stroke-dasharray:none;stroke-opacity:1"
             id="path802" /></g><g
           id="g804"
           transform="translate(74.2202,148.3501)"><path
             d="M 0,0 H 181.78 V 115.761 H -6.253 V 6.254 C -6.253,2.8 -3.454,0 0,0 Z"
             style="fill:none;stroke:#fff;stroke-width:15;stroke-linecap:round;stroke-linejoin:round;stroke-miterlimit:10;stroke-dasharray:none;stroke-opacity:1"
             id="path806" /></g><g
           id="g808"
           transform="translate(367.8471,191.1636)"><path
             d="m 0,0 h -35.66 c -14.525,0 -26.299,-11.775 -26.299,-26.299 v -16.514 h 88.258 v 16.514 C 26.299,-11.775 14.524,0 0,0 Z"
             style="fill:none;stroke:#fff;stroke-width:15;stroke-linecap:round;stroke-linejoin:round;stroke-miterlimit:10;stroke-dasharray:none;stroke-opacity:1"
             id="path810" /></g><g
           id="g812"
           transform="translate(365.8491,229.3853)"><path
             d="m 0,0 c 8.744,-8.744 8.744,-22.92 0,-31.664 -8.744,-8.744 -22.92,-8.744 -31.664,0 -8.744,8.744 -8.744,22.92 0,31.664 C -22.92,8.744 -8.744,8.744 0,0 Z"
             style="fill:none;stroke:#fff;stroke-width:15;stroke-linecap:round;stroke-linejoin:round;stroke-miterlimit:10;stroke-dasharray:none;stroke-opacity:1"
             id="path814" /></g><g
           id="g816"
           transform="translate(367.8471,306.9243)"><path
             d="m 0,0 h -35.66 c -14.525,0 -26.299,-11.774 -26.299,-26.298 v -16.515 h 88.258 v 16.515 C 26.299,-11.774 14.524,0 0,0 Z"
             style="fill:none;stroke:#fff;stroke-width:15;stroke-linecap:round;stroke-linejoin:round;stroke-miterlimit:10;stroke-dasharray:none;stroke-opacity:1"
             id="path818" /></g><g
           id="g820"
           transform="translate(365.8491,345.1465)"><path
             d="m 0,0 c 8.744,-8.744 8.744,-22.92 0,-31.664 -8.744,-8.744 -22.92,-8.744 -31.664,0 -8.744,8.744 -8.744,22.92 0,31.664 C -22.92,8.744 -8.744,8.744 0,0 Z"
             style="fill:none;stroke:#fff;stroke-width:15;stroke-linecap:round;stroke-linejoin:round;stroke-miterlimit:10;stroke-dasharray:none;stroke-opacity:1"
             id="path822" /></g><g
           id="g824"
           transform="translate(179.8139,191.1636)"><path
             d="m 0,0 h -35.661 c -14.524,0 -26.298,-11.775 -26.298,-26.299 v -16.514 h 88.258 v 16.514 C 26.299,-11.775 14.524,0 0,0 Z"
             style="fill:none;stroke:#fff;stroke-width:15;stroke-linecap:round;stroke-linejoin:round;stroke-miterlimit:10;stroke-dasharray:none;stroke-opacity:1"
             id="path826" /></g><g
           id="g828"
           transform="translate(177.8154,229.3853)"><path
             d="m 0,0 c 8.744,-8.744 8.744,-22.92 0,-31.664 -8.744,-8.744 -22.92,-8.744 -31.664,0 -8.744,8.744 -8.744,22.92 0,31.664 C -22.92,8.744 -8.744,8.744 0,0 Z"
             style="fill:none;stroke:#fff;stroke-width:15;stroke-linecap:round;stroke-linejoin:round;stroke-miterlimit:10;stroke-dasharray:none;stroke-opacity:1"
             id="path830" /></g><g
           id="g832"
           transform="translate(179.8139,306.9243)"><path
             d="m 0,0 h -35.661 c -14.524,0 -26.298,-11.774 -26.298,-26.298 v -16.515 h 88.258 v 16.515 C 26.299,-11.774 14.524,0 0,0 Z"
             style="fill:none;stroke:#fff;stroke-width:15;stroke-linecap:round;stroke-linejoin:round;stroke-miterlimit:10;stroke-dasharray:none;stroke-opacity:1"
             id="path834" /></g><g
           id="g836"
           transform="translate(177.8154,345.1465)"><path
             d="m 0,0 c 8.744,-8.744 8.744,-22.92 0,-31.664 -8.744,-8.744 -22.92,-8.744 -31.664,0 -8.744,8.744 -8.744,22.92 0,31.664 C -22.92,8.744 -8.744,8.744 0,0 Z"
             style="fill:none;stroke:#fff;stroke-width:15;stroke-linecap:round;stroke-linejoin:round;stroke-miterlimit:10;stroke-dasharray:none;stroke-opacity:1"
             id="path838" /></g><g
           id="g840"
           transform="translate(475.3466,281.6109)"><path
             d="m 0,0 v 131.572 c 0,19.22 -15.636,34.856 -34.855,34.856 h -368.982 c -19.219,0 -34.855,-15.636 -34.855,-34.856 v -261.447 c 0,-16.998 12.596,-31.729 29.359,-34.416 H -29.36 C -12.597,-161.604 0,-146.873 0,-129.875 V -35"
             style="fill:none;stroke:#fff;stroke-width:15;stroke-linecap:round;stroke-linejoin:round;stroke-miterlimit:10;stroke-dasharray:none;stroke-opacity:1"
             id="path842" /></g><g
           id="g844"
           transform="translate(238.5,416.9605)"><path
             d="m 0,0 h -129.882 v -37.088 h 335.416 v 30.834 c 0,3.454 -2.8,6.254 -6.253,6.254 L 35,0"
             style="fill:none;stroke:#fff;stroke-width:15;stroke-linecap:round;stroke-linejoin:round;stroke-miterlimit:10;stroke-dasharray:none;stroke-opacity:1"
             id="path846" /></g></g></g></g></svg>
