<?xml version="1.0" encoding="UTF-8"?>
<svg xmlns="http://www.w3.org/2000/svg" xmlns:xlink="http://www.w3.org/1999/xlink" version="1.1" id="Capa_1" x="0px" y="0px" viewBox="0 0 512 512" style="enable-background:new 0 0 512 512;" xml:space="preserve" width="512" height="512">
<g>
	<g>
		<path style="fill:none;stroke:#fff;stroke-width:15;stroke-linecap:round;stroke-linejoin:round;stroke-miterlimit:10;" d="&#10;&#9;&#9;&#9;M283.687,446.128c20.789-26.183,33.2-59.275,33.2-95.256c0-84.846-69.013-153.628-154.144-153.628&#10;&#9;&#9;&#9;c-85.132,0-154.144,68.782-154.144,153.628c0,84.847,69.013,153.628,154.144,153.628c35.051,0,67.369-11.66,93.264-31.3&#10;&#9;&#9;&#9; M228.321,446.131c-18.664,12.803-41.259,20.304-65.579,20.304c-63.936,0-115.951-51.841-115.951-115.563&#10;&#9;&#9;&#9;s52.015-115.563,115.951-115.563s115.952,51.841,115.952,115.563c0,25.662-8.436,49.397-22.689,68.595"/>
		<g>
			<path style="fill:none;stroke:#fff;stroke-width:15;stroke-miterlimit:10;" d="M228.317,255.619&#10;&#9;&#9;&#9;&#9;c-18.664-12.803-41.255-20.31-65.575-20.31c-63.936,0-115.951,51.841-115.951,115.563s52.015,115.563,115.951,115.563&#10;&#9;&#9;&#9;&#9;c24.32,0,46.911-7.507,65.575-20.31c-20.789-26.183-33.204-59.272-33.204-95.253S207.529,281.802,228.317,255.619z"/>
			<path style="fill:none;stroke:#fff;stroke-width:15;stroke-miterlimit:10;" d="M283.683,446.125&#10;&#9;&#9;&#9;&#9;c18.664,12.803,41.255,20.31,65.575,20.31c63.936,0,115.952-51.841,115.952-115.563s-52.016-115.563-115.952-115.563&#10;&#9;&#9;&#9;&#9;c-24.32,0-46.911,7.507-65.575,20.31c20.789,26.183,33.204,59.272,33.204,95.253S304.471,419.942,283.683,446.125z"/>
			<path style="fill:none;stroke:#fff;stroke-width:15;stroke-linecap:round;stroke-linejoin:round;stroke-miterlimit:10;" d="&#10;&#9;&#9;&#9;&#9;M461.98,455.643c25.692-27.445,41.422-64.275,41.422-104.771c0-84.846-69.013-153.628-154.144-153.628&#10;&#9;&#9;&#9;&#9;c-35.051,0-67.363,11.668-93.258,31.308c10.327,7.833,19.634,16.93,27.682,27.067c18.664-12.803,41.255-20.31,65.575-20.31&#10;&#9;&#9;&#9;&#9;c63.936,0,115.952,51.841,115.952,115.563c0,63.722-52.016,115.563-115.952,115.563c-24.32,0-46.911-7.507-65.575-20.31&#10;&#9;&#9;&#9;&#9;c-10.642-7.3-20.006-16.322-27.683-26.661c-14.253-19.198-22.693-42.93-22.693-68.592c0-25.662,8.44-49.393,22.693-68.591&#10;&#9;&#9;&#9;&#9;c-7.677-10.34-17.041-19.361-27.683-26.662c-20.789,26.183-33.204,59.272-33.204,95.253c0,35.981,12.415,69.071,33.204,95.253&#10;&#9;&#9;&#9;&#9;c8.049,10.138,17.356,19.235,27.683,27.067c25.894,19.64,58.207,31.308,93.258,31.308c33.78,0,65.015-10.838,90.415-29.203"/>
		</g>
	</g>
	<g>
		<path style="fill:none;stroke:#fff;stroke-width:15;stroke-linecap:round;stroke-linejoin:round;stroke-miterlimit:10;" d="&#10;&#9;&#9;&#9;M177.095,58.707c-2.348,5.173-3.667,10.911-3.667,16.959c0,44.627,82.572,98.629,82.572,98.629s82.572-54.002,82.572-98.629&#10;&#9;&#9;&#9;c0-22.741-18.484-41.177-41.286-41.177C274.484,34.49,256,52.925,256,75.666c0-22.741-18.484-41.177-41.286-41.177&#10;&#9;&#9;&#9;c-5.905,0-11.516,1.245-16.596,3.473"/>
		
			<line style="fill:none;stroke:#fff;stroke-width:15;stroke-linecap:round;stroke-linejoin:round;stroke-miterlimit:10;" x1="131.757" y1="7.5" x2="147.461" y2="16.543"/>
		
			<line style="fill:none;stroke:#fff;stroke-width:15;stroke-linecap:round;stroke-linejoin:round;stroke-miterlimit:10;" x1="112.536" y1="79.042" x2="130.67" y2="79.042"/>
		
			<line style="fill:none;stroke:#fff;stroke-width:15;stroke-linecap:round;stroke-linejoin:round;stroke-miterlimit:10;" x1="131.757" y1="150.584" x2="147.461" y2="141.541"/>
		
			<line style="fill:none;stroke:#fff;stroke-width:15;stroke-linecap:round;stroke-linejoin:round;stroke-miterlimit:10;" x1="380.243" y1="150.585" x2="364.539" y2="141.542"/>
		
			<line style="fill:none;stroke:#fff;stroke-width:15;stroke-linecap:round;stroke-linejoin:round;stroke-miterlimit:10;" x1="399.464" y1="79.043" x2="381.33" y2="79.043"/>
		
			<line style="fill:none;stroke:#fff;stroke-width:15;stroke-linecap:round;stroke-linejoin:round;stroke-miterlimit:10;" x1="380.243" y1="7.5" x2="364.539" y2="16.543"/>
	</g>
</g>















</svg>
